<svg width="247" height="47" viewBox="0 0 247 47" fill="none" xmlns="http://www.w3.org/2000/svg">
<g clip-path="url(#clip0_130_572)">
<path d="M137.168 19.7639C137.131 15.2461 135.602 13.0528 134.376 11.2908C133.294 9.73815 131.896 8.41485 130.408 7.26266L130.193 7.49746C130.273 7.58119 132.128 9.60709 132.128 14.0484C132.128 17.4832 130.575 20.5065 127.513 23.033C124.05 25.8889 120.238 28.4536 117.739 32.2815C115.944 35.0282 114.847 38.1353 114.35 39.7498V29.5093C114.35 28.5719 114.533 27.6472 115.096 26.8791C115.675 26.0946 116.505 25.5176 117.209 24.8569C118.31 23.8193 118.307 22.9365 118.299 22.0828V21.7206C118.299 21.7206 120.972 21.2911 122.484 20.6667C125.113 19.7184 127.546 17.4668 127.968 14.68C128.349 12.1463 127.202 10.3243 125.728 8.788C124.497 7.50657 122.584 6.49089 122.28 4.5742C122.018 2.90324 123.473 1.47437 123.473 1.47437C123.473 1.47437 122.302 0.877343 120.973 1.00112C119.537 1.13399 117.985 1.98221 117.555 4.11733C117.491 4.43404 117.462 4.9164 117.455 5.28954H117.253C117.253 5.28954 116.652 1.63273 113.221 0C109.79 1.63091 109.189 5.28954 109.189 5.28954H108.987C108.98 4.9164 108.951 4.43404 108.887 4.11733C108.458 1.98221 106.905 1.13399 105.469 1.00112C104.14 0.877343 102.97 1.47437 102.97 1.47437C102.97 1.47437 104.424 2.90324 104.162 4.5742C103.856 6.49271 101.945 7.50839 100.714 8.788C99.24 10.3243 98.0933 12.1463 98.4737 14.68C98.8978 17.4686 101.33 19.7184 103.958 20.6667C105.471 21.2911 108.143 21.7206 108.143 21.7206V22.0828C108.135 22.9365 108.132 23.8193 109.233 24.8569C109.939 25.5194 110.769 26.0946 111.346 26.8791C111.909 27.6491 112.093 28.5719 112.093 29.5093V39.7498C111.596 38.1335 110.5 35.0282 108.703 32.2815C106.204 28.4536 102.393 25.8889 98.9288 23.033C95.8653 20.5065 94.3145 17.4832 94.3145 14.0484C94.3145 9.60709 96.1693 7.58119 96.2494 7.49746L96.0346 7.26266C94.5439 8.41485 93.1459 9.73815 92.0665 11.2908C90.8397 13.0528 89.3107 15.2461 89.2743 19.7639C89.2216 26.2147 94.2326 31.1675 100.026 33.1843C101.024 33.532 102.131 33.7486 103.103 34.2273C102.546 34.0799 101.776 33.9798 100.882 34.129C96.9793 34.7843 96.8646 38.1117 96.8646 38.4866C96.8646 42.6877 101.282 43.0426 101.288 43.0426C101.288 43.0426 100.117 41.1077 101.406 39.5296C102.291 38.4411 103.678 38.2864 104.682 38.3501C106.894 38.483 109.104 39.8409 110.181 41.7321C110.815 42.8424 111.117 44.0656 111.193 45.3343C111.221 45.7547 111.222 46.177 111.222 46.5975H115.214C115.214 46.177 115.216 45.7547 115.243 45.3343C115.322 44.0638 115.624 42.8424 116.255 41.7321C117.331 39.8409 119.541 38.483 121.754 38.3501C122.761 38.2864 124.146 38.4411 125.031 39.5296C126.319 41.1095 125.149 43.0426 125.149 43.0426C125.156 43.0426 129.572 42.6877 129.572 38.4866C129.572 38.1117 129.457 34.7843 125.555 34.129C124.661 33.9779 123.891 34.0781 123.334 34.2273C124.306 33.7486 125.415 33.5338 126.41 33.1843C132.204 31.1675 137.215 26.2166 137.162 19.7639H137.168Z" fill="#333333"/>
<path d="M162.329 42.5295L154.524 21.1475H153.073L145.268 42.5313C144.706 44.084 144.312 45.0851 143.581 45.8878L143.49 45.9861L143.619 46.3738H146.566L146.697 45.9788L146.597 45.8787C146.053 45.3345 145.849 44.9267 145.849 44.377C145.849 43.942 145.967 43.4524 146.26 42.6861L147.622 38.9437H157.141L158.503 42.6897C158.794 43.4524 158.912 43.942 158.912 44.3789C158.912 44.9286 158.71 45.3363 158.164 45.8805L158.064 45.9806L158.197 46.3756H163.974L164.104 45.9861L164.014 45.8878C163.283 45.0851 162.888 44.084 162.327 42.5313L162.329 42.5295ZM156.765 37.9571H148.002L152.383 25.9328L156.765 37.9571Z" fill="#333333"/>
<path d="M210.868 42.3695L205.306 28.1045H204.325L198.797 42.3695C198.174 43.995 197.721 45.0107 197.106 45.726L197.022 45.8243L197.151 46.2084H200.089L200.222 45.8134L200.122 45.7133C199.579 45.1708 199.377 44.7649 199.377 44.2152C199.377 43.7802 199.496 43.2924 199.785 42.5333L203.491 32.9499L207.23 42.5333C207.521 43.296 207.639 43.7838 207.639 44.217C207.639 44.7649 207.437 45.1726 206.895 45.7151L206.795 45.8152L206.926 46.2102H212.512L212.641 45.8225L212.552 45.7242C211.96 45.0671 211.52 44.0787 210.865 42.3713L210.868 42.3695Z" fill="#333333"/>
<path d="M228.073 42.4491V27.6562L223.641 29.2125L223.526 29.5566L223.626 29.6567C224.618 30.6487 224.618 31.2676 224.618 32.9203V42.7294C222.8 44.1783 221.105 44.9756 219.833 44.9756C218.431 44.9756 217.66 44.0418 217.66 42.3436V27.6562L213.227 29.2125L213.113 29.5566L213.211 29.6548C214.203 30.6469 214.203 31.2657 214.203 32.9185V41.954C214.203 44.9483 215.65 46.6648 218.171 46.6648C219.999 46.6648 222.329 45.6873 224.615 43.969V46.2061H229.031L229.162 45.8111L229.062 45.7128C228.069 44.7208 228.069 44.1019 228.069 42.451L228.073 42.4491Z" fill="#333333"/>
<path d="M246.716 45.7129C245.724 44.7209 245.724 44.102 245.724 42.4511V27.6582L241.291 29.2145L241.177 29.5585L241.277 29.6586C242.269 30.6506 242.269 31.2695 242.269 32.9223V42.7314C240.45 44.1803 238.756 44.9776 237.483 44.9776C236.082 44.9776 235.31 44.0438 235.31 42.3455V27.6582L230.878 29.2145L230.763 29.5585L230.863 29.6586C231.855 30.6506 231.855 31.2695 231.855 32.9223V41.9578C231.855 44.9521 233.302 46.6685 235.823 46.6685C237.651 46.6685 239.981 45.6911 242.267 43.9728V46.2098H246.683L246.814 45.8148L246.716 45.7166V45.7129Z" fill="#333333"/>
<path d="M192.875 24.5075L191.583 22.6436L186.983 26.0237L187.591 26.5861L192.875 24.5075Z" fill="#333333"/>
<path d="M19.651 40.4947C17.9255 43.6145 15.4864 45.2618 12.5995 45.2618C8.22373 45.2618 3.79515 41.3811 3.79515 33.9619C3.79515 31.1406 4.02995 27.5639 5.85563 24.9027C7.96526 21.832 12.3611 21.5754 15.3936 23.1007C16.3018 23.5576 17.1755 24.2857 17.7908 25.0957C18.1803 25.6108 18.437 26.1842 18.7082 26.7903L18.8829 27.178L19.3398 27.0251V23.1189H19.1123C18.2713 23.1189 17.465 22.8149 16.7114 22.5019L16.4657 22.3999C15.6775 22.0723 14.8639 21.7337 14.0084 21.5499C13.091 21.3533 12.1135 21.2568 11.0178 21.2568C4.11915 21.2587 0 26.0076 0 33.9619C0 41.9163 4.11915 46.6652 11.0159 46.6652C15.3408 46.6652 18.5625 44.6502 20.3354 40.8405L20.4283 40.6403L19.7548 40.3017L19.6492 40.4929L19.651 40.4947Z" fill="#333333"/>
<path d="M78.0145 28.2805L78.1146 28.1804L77.9799 27.7891H72.6303L72.4956 28.1804L72.5957 28.2805C73.5841 29.2689 73.5841 29.8841 73.5841 31.5296V42.5911C73.5841 44.2365 73.5841 44.8518 72.5957 45.8401L72.4956 45.9402L72.6303 46.3334H77.9799L78.1146 45.9402L78.0145 45.8401C77.0261 44.8518 77.0261 44.2365 77.0261 42.5911V31.5296C77.0261 29.8841 77.0261 29.2689 78.0145 28.2805Z" fill="#333333"/>
<path d="M69.5413 37.2668C68.5056 36.3694 66.942 35.8197 65.1364 35.7232C64.7541 35.705 64.6522 35.705 64.3137 35.7087C64.1007 35.7105 63.7931 35.7141 63.2598 35.7141H62.0548V30.6121C62.0548 29.4089 62.0548 29.0449 62.792 28.3077L62.8611 28.2403V27.7871H58.0703L57.7299 28.1275L57.9229 28.3186C58.6491 29.0449 58.6491 29.4089 58.6491 30.6121V43.5083C58.6491 44.726 58.6491 45.1356 57.932 45.7927L57.7227 45.9838L58.0703 46.3315H64.6704C68.5784 46.3315 71.205 44.1982 71.205 41.0219C71.205 39.5093 70.6298 38.2097 69.5413 37.265V37.2668ZM68.1434 41.0237C68.1434 44.0817 66.8438 45.3868 63.7967 45.3868H62.0529V36.6607H63.7967C66.8438 36.6607 68.1434 37.9658 68.1434 41.0237Z" fill="#333333"/>
<path d="M46.3992 21.1414C45.0195 20.7464 43.2848 20.6718 41.6394 20.9357L41.4337 20.9684L41.4847 21.682L41.7267 21.6474C44.6646 21.2342 47.3112 22.1334 48.9912 24.1138C50.1471 25.4771 50.9643 27.2719 51.4758 29.5799C49.8849 27.7469 47.8026 27.5303 46.9053 27.5303C42.8698 27.5303 38.5596 30.0004 38.5596 36.9299C38.5596 43.8595 42.9609 46.3659 47.0818 46.3659C54.4956 46.3659 55.6041 39.1324 55.6041 34.8221C55.6041 32.2829 55.1799 28.657 53.1595 25.8102C51.5905 23.5987 49.1896 21.9404 46.4029 21.1414H46.3992ZM52.0874 36.1236C52.051 42.6163 50.553 45.3866 47.0782 45.3866C43.6034 45.3866 42.1745 42.7801 42.1745 36.9336C42.1745 31.087 43.6325 28.5151 46.9016 28.5151C50.1707 28.5151 52.0292 31.2181 52.0856 36.1236H52.0874Z" fill="#333333"/>
<path d="M35.8001 42.4514V32.4694C35.8001 29.6444 33.5522 28.0244 29.6332 28.0244C27.9113 28.0244 26.6099 28.5232 25.5651 28.9236C24.8042 29.2148 24.1471 29.466 23.5191 29.466H23.2916V32.5294L23.7103 32.6696L23.8086 32.5349C25.718 29.9138 27.2979 28.9382 29.6351 28.9382C31.6974 28.9382 32.3599 29.7445 32.3599 32.2601V32.4712C32.3599 33.6198 30.7399 34.204 28.8651 34.8812C25.8963 35.9533 22.2031 37.2857 22.2031 41.6087C22.2031 42.7172 22.6272 46.334 28.0897 46.334C28.8342 46.334 29.4894 46.2466 30.0938 46.0646C30.8619 45.8334 31.6519 45.351 32.3599 44.6867V46.1938H36.7576L36.8886 45.7988L36.7885 45.6987C35.8001 44.7103 35.8001 44.0951 35.8001 42.4514ZM32.3581 41.0389C32.3581 43.9058 30.6216 44.8359 29.8753 45.1017C29.4203 45.2637 28.9234 45.351 28.4392 45.351C26.3259 45.351 25.5742 43.489 25.5742 41.747C25.5742 38.4506 28.0751 36.9416 30.2812 35.6111C31.0621 35.1396 31.8102 34.6882 32.3581 34.1931V41.0371V41.0389Z" fill="#333333"/>
<path d="M194.76 42.4514V32.4694C194.76 29.6444 192.512 28.0244 188.593 28.0244C186.871 28.0244 185.57 28.5232 184.525 28.9236C183.764 29.2148 183.107 29.466 182.479 29.466H182.252V32.5276L182.67 32.6678L182.769 32.5331C184.68 29.912 186.258 28.9363 188.595 28.9363C190.657 28.9363 191.32 29.7427 191.32 32.2582V32.4694C191.32 33.6179 189.7 34.2022 187.825 34.8793C184.856 35.9514 181.163 37.2838 181.163 41.6069C181.163 42.7154 181.587 46.3321 187.05 46.3321C187.794 46.3321 188.449 46.2448 189.054 46.0627C189.822 45.8316 190.612 45.3492 191.32 44.6848V46.192H195.718L195.849 45.797L195.748 45.6969C194.76 44.7085 194.76 44.0933 194.76 42.4496V42.4514ZM191.318 41.0389C191.318 43.9058 189.582 44.8359 188.833 45.1017C188.378 45.2637 187.881 45.351 187.397 45.351C185.284 45.351 184.532 43.489 184.532 41.747C184.532 38.4506 187.033 36.9416 189.239 35.6111C190.02 35.1396 190.768 34.69 191.316 34.1931V41.0371L191.318 41.0389Z" fill="#333333"/>
<path d="M175.07 35.5321C175.676 35.3665 176.231 35.0916 176.694 34.7276C176.963 34.5146 177.2 34.2743 177.396 34.0104C178.053 33.1367 178.232 31.7351 177.817 30.6667C177.591 30.0951 177.205 29.6037 176.674 29.2068C175.294 28.1802 173.273 28.0273 172.19 28.0273C170.651 28.0273 169.409 28.4715 168.412 28.8301C167.685 29.0903 167.059 29.3142 166.499 29.3142H166.271V32.0919L166.681 32.2302L166.779 32.0955C168.412 29.8494 170.032 28.8919 172.192 28.8919C173.678 28.8919 174.737 29.7347 175.023 31.1454C175.205 32.0464 175.092 33.3369 174.524 34.0614C173.989 34.7439 173.104 34.915 172.458 34.9387C172.4 34.9405 172.34 34.9423 172.281 34.9423H169.983L169.764 34.9587V34.9915H169.748V35.7178H170.885C174.282 35.7178 175.605 37.0957 175.605 40.6323C175.605 43.9815 174.427 45.5415 171.897 45.5415C170.13 45.5415 168.024 44.7715 168.024 41.1074C168.024 40.008 168.488 39.2672 168.492 39.2599L168.701 38.9359L167.816 38.874L165.163 40.5031V40.6305C165.163 44.8461 168.641 46.3478 171.896 46.3478C173.763 46.3478 175.487 45.8855 176.748 45.0445C178.268 44.0325 179.071 42.5053 179.071 40.6305C179.071 38.1951 177.66 36.4113 175.07 35.5321Z" fill="#333333"/>
</g>
<defs>
<clipPath id="clip0_130_572">
<rect width="246.814" height="46.6667" fill="white"/>
</clipPath>
</defs>
</svg>
