<svg width="36" height="27" viewBox="0 0 36 27" fill="none" xmlns="http://www.w3.org/2000/svg">
<path fill-rule="evenodd" clip-rule="evenodd" d="M5.37931 14.0723C6.3954 14.4959 7.4155 15.0633 8.36971 15.8053C11.1011 17.9292 13.2503 21.4527 13.2503 27L12.2503 27C12.2503 21.7473 10.2328 18.5208 7.75585 16.5947C5.36473 14.7354 2.50633 14.0591 0.516249 14.0037L0.250281 14L0.242751 14L0.250281 13.4653L0.250281 13C2.24541 13 5.256 12.3492 7.75585 10.4053C10.2328 8.47922 12.2503 5.25267 12.2503 2.05501e-06L13.2503 1.96759e-06C13.2503 5.54734 11.1011 9.07078 8.36971 11.1947C7.30656 12.0214 6.16161 12.6313 5.03154 13.0673L35.7568 13.5L35.7428 14.5L5.37931 14.0723Z" fill="white"/>
</svg>
