<svg width="318" height="72" viewBox="0 0 318 72" fill="none" xmlns="http://www.w3.org/2000/svg">
<g clip-path="url(#clip0_113_337)">
<path d="M176.358 25.4107C176.311 19.6022 174.346 16.7821 172.768 14.5167C171.378 12.5205 169.581 10.8191 167.666 9.3377L167.39 9.6396C167.493 9.74725 169.878 12.352 169.878 18.0623C169.878 22.4784 167.882 26.3656 163.945 29.6139C159.492 33.2857 154.591 36.5832 151.378 41.5048C149.071 45.0363 147.659 49.0311 147.02 51.1069V37.9406C147.02 36.7353 147.257 35.5465 147.98 34.5589C148.724 33.5502 149.791 32.8083 150.697 31.9588C152.113 30.6249 152.108 29.4898 152.099 28.3922V27.9265C152.099 27.9265 155.534 27.3742 157.479 26.5715C160.858 25.3522 163.987 22.4573 164.53 18.8743C165.02 15.6167 163.545 13.274 161.65 11.2989C160.067 9.6513 157.608 8.34542 157.217 5.88111C156.88 3.73274 158.75 1.89562 158.75 1.89562C158.75 1.89562 157.245 1.12801 155.537 1.28715C153.69 1.45799 151.694 2.54856 151.142 5.2937C151.06 5.70091 151.022 6.32109 151.013 6.80084H150.753C150.753 6.80084 149.981 2.09923 145.569 0C141.158 2.09689 140.386 6.80084 140.386 6.80084H140.126C140.117 6.32109 140.079 5.70091 139.997 5.2937C139.445 2.54856 137.449 1.45799 135.602 1.28715C133.894 1.12801 132.389 1.89562 132.389 1.89562C132.389 1.89562 134.259 3.73274 133.922 5.88111C133.529 8.34776 131.071 9.65364 129.489 11.2989C127.594 13.274 126.119 15.6167 126.609 18.8743C127.154 22.4596 130.28 25.3522 133.66 26.5715C135.605 27.3742 139.04 27.9265 139.04 27.9265V28.3922C139.031 29.4898 139.026 30.6249 140.442 31.9588C141.35 32.8107 142.417 33.5502 143.159 34.5589C143.882 35.5488 144.119 36.7353 144.119 37.9406V51.1069C143.48 49.0288 142.071 45.0363 139.761 41.5048C136.548 36.5832 131.647 33.2857 127.194 29.6139C123.255 26.3656 121.261 22.4784 121.261 18.0623C121.261 12.352 123.646 9.74725 123.749 9.6396L123.473 9.3377C121.556 10.8191 119.759 12.5205 118.371 14.5167C116.793 16.7821 114.828 19.6022 114.781 25.4107C114.713 33.7047 121.156 40.0725 128.605 42.6656C129.887 43.1126 131.31 43.3911 132.56 44.0065C131.844 43.817 130.854 43.6883 129.705 43.8802C124.687 44.7227 124.54 49.0007 124.54 49.4828C124.54 54.8842 130.22 55.3405 130.227 55.3405C130.227 55.3405 128.722 52.8528 130.379 50.8238C131.516 49.4243 133.299 49.2254 134.591 49.3073C137.435 49.4781 140.276 51.224 141.661 53.6555C142.476 55.0831 142.864 56.6557 142.962 58.2869C142.998 58.8275 143 59.3705 143 59.9111H148.132C148.132 59.3705 148.134 58.8275 148.17 58.2869C148.27 56.6534 148.659 55.0831 149.471 53.6555C150.854 51.224 153.695 49.4781 156.541 49.3073C157.835 49.2254 159.616 49.4243 160.753 50.8238C162.41 52.8551 160.905 55.3405 160.905 55.3405C160.915 55.3405 166.592 54.8842 166.592 49.4828C166.592 49.0007 166.445 44.7227 161.427 43.8802C160.278 43.6859 159.288 43.8146 158.572 44.0065C159.822 43.3911 161.247 43.1149 162.527 42.6656C169.976 40.0725 176.419 33.707 176.351 25.4107H176.358Z" fill="white"/>
<path d="M208.708 54.6806L198.673 27.1893H196.808L186.773 54.6829C186.05 56.6791 185.544 57.9663 184.603 58.9984L184.486 59.1247L184.652 59.6232H188.441L188.61 59.1154L188.481 58.9867C187.781 58.2869 187.519 57.7627 187.519 57.0559C187.519 56.4966 187.671 55.8671 188.048 54.8818L189.799 50.0702H202.038L203.789 54.8865C204.163 55.8671 204.315 56.4966 204.315 57.0583C204.315 57.765 204.056 58.2893 203.354 58.989L203.225 59.1177L203.396 59.6256H210.824L210.99 59.1247L210.875 58.9984C209.934 57.9663 209.427 56.6791 208.706 54.6829L208.708 54.6806ZM201.554 48.8018H190.288L195.921 33.3419L201.554 48.8018Z" fill="white"/>
<path d="M271.116 54.4746L263.964 36.1339H262.703L255.595 54.4746C254.795 56.5645 254.212 57.8704 253.421 58.7901L253.313 58.9165L253.48 59.4103H257.257L257.428 58.9024L257.299 58.7737C256.602 58.0763 256.342 57.5544 256.342 56.8477C256.342 56.2883 256.494 55.6611 256.866 54.6852L261.631 42.3637L266.438 54.6852C266.812 55.6658 266.964 56.293 266.964 56.85C266.964 57.5544 266.705 58.0786 266.007 58.776L265.878 58.9048L266.047 59.4126H273.229L273.395 58.9141L273.281 58.7877C272.52 57.9429 271.954 56.6721 271.111 54.4769L271.116 54.4746Z" fill="white"/>
<path d="M293.237 54.5776V35.5582L287.538 37.5591L287.391 38.0014L287.519 38.1301C288.795 39.4056 288.795 40.2013 288.795 42.3262V54.938C286.457 56.8009 284.278 57.8259 282.642 57.8259C280.84 57.8259 279.848 56.6253 279.848 54.4419V35.5582L274.149 37.5591L274.002 38.0014L274.128 38.1278C275.404 39.4032 275.404 40.1989 275.404 42.3239V53.941C275.404 57.7908 277.264 59.9977 280.506 59.9977C282.855 59.9977 285.851 58.7409 288.79 56.5317V59.4079H294.468L294.636 58.9001L294.507 58.7737C293.232 57.4983 293.232 56.7026 293.232 54.5799L293.237 54.5776Z" fill="white"/>
<path d="M317.205 58.7737C315.93 57.4982 315.93 56.7025 315.93 54.5799V35.5605L310.231 37.5614L310.084 38.0037L310.213 38.1325C311.488 39.4079 311.488 40.2036 311.488 42.3286V54.9403C309.15 56.8032 306.971 57.8282 305.336 57.8282C303.534 57.8282 302.541 56.6277 302.541 54.4442V35.5605L296.843 37.5614L296.695 38.0037L296.824 38.1325C298.099 39.4079 298.099 40.2036 298.099 42.3286V53.9457C298.099 57.7955 299.96 60.0023 303.201 60.0023C305.551 60.0023 308.546 58.7456 311.486 56.5364V59.4126H317.163L317.332 58.9047L317.205 58.7784V58.7737Z" fill="white"/>
<path d="M247.983 31.5095L246.321 29.113L240.407 33.4589L241.189 34.1821L247.983 31.5095Z" fill="white"/>
<path d="M25.2656 52.0641C23.047 56.0754 19.9111 58.1933 16.1994 58.1933C10.5734 58.1933 4.87948 53.2038 4.87948 43.6649C4.87948 40.0374 5.18137 35.4388 7.52867 32.0173C10.241 28.0693 15.8928 27.7393 19.7917 29.7004C20.9595 30.2879 22.0828 31.224 22.8739 32.2654C23.3747 32.9277 23.7047 33.6649 24.0534 34.4442L24.278 34.9427L24.8654 34.7461V29.7238H24.5729C23.4917 29.7238 22.4549 29.333 21.4861 28.9305L21.1701 28.7994C20.1568 28.3782 19.1107 27.9429 18.0108 27.7065C16.8313 27.4538 15.5745 27.3297 14.1657 27.3297C5.29604 27.3321 0 33.4379 0 43.6649C0 53.8919 5.29604 59.9977 14.1634 59.9977C19.7238 59.9977 23.8661 57.407 26.1456 52.5088L26.2649 52.2513L25.399 51.8161L25.2633 52.0618L25.2656 52.0641Z" fill="white"/>
<path d="M100.304 36.3609L100.433 36.2322L100.26 35.729H93.3817L93.2085 36.2322L93.3372 36.3609C94.608 37.6316 94.608 38.4227 94.608 40.5383V54.7601C94.608 56.8757 94.608 57.6668 93.3372 58.9375L93.2085 59.0662L93.3817 59.5717H100.26L100.433 59.0662L100.304 58.9375C99.0334 57.6668 99.0334 56.8757 99.0334 54.7601V40.5383C99.0334 38.4227 99.0334 37.6316 100.304 36.3609Z" fill="white"/>
<path d="M89.4103 47.9148C88.0786 46.7611 86.0683 46.0543 83.7468 45.9303C83.2553 45.9069 83.1243 45.9069 82.689 45.9115C82.4152 45.9139 82.0197 45.9186 81.334 45.9186H79.7847V39.3588C79.7847 37.8118 79.7847 37.3438 80.7325 36.396L80.8214 36.3094V35.7267H74.6618L74.2242 36.1643L74.4723 36.41C75.406 37.3438 75.406 37.8118 75.406 39.3588V55.9396C75.406 57.5053 75.406 58.0318 74.484 58.8767L74.2148 59.1224L74.6618 59.5694H83.1477C88.1723 59.5694 91.5493 56.8266 91.5493 52.7428C91.5493 50.798 90.8097 49.1271 89.4103 47.9125V47.9148ZM87.6129 52.7451C87.6129 56.6768 85.942 58.3548 82.0243 58.3548H79.7824V47.1355H82.0243C85.942 47.1355 87.6129 48.8135 87.6129 52.7451Z" fill="white"/>
<path d="M59.6557 27.1823C57.8818 26.6745 55.6515 26.5785 53.5359 26.9179L53.2715 26.96L53.337 27.8774L53.6483 27.8329C57.4255 27.3017 60.8282 28.4578 62.9883 31.004C64.4744 32.7568 65.5252 35.0644 66.1828 38.0318C64.1374 35.6752 61.4601 35.3967 60.3063 35.3967C55.1179 35.3967 49.5762 38.5724 49.5762 47.4819C49.5762 56.3913 55.235 59.6139 60.5333 59.6139C70.0653 59.6139 71.4905 50.3136 71.4905 44.7718C71.4905 41.5071 70.9452 36.8453 68.3475 33.1851C66.3302 30.3417 63.2434 28.2097 59.6604 27.1823H59.6557ZM66.9691 46.4451C66.9223 54.7929 64.9963 58.3548 60.5287 58.3548C56.0611 58.3548 54.224 55.0035 54.224 47.4865C54.224 39.9696 56.0985 36.6628 60.3017 36.6628C64.5048 36.6628 66.8942 40.1381 66.9668 46.4451H66.9691Z" fill="white"/>
<path d="M46.0282 54.5799V41.7458C46.0282 38.1137 43.138 36.0309 38.0994 36.0309C35.8855 36.0309 34.2122 36.6721 32.8689 37.187C31.8906 37.5614 31.0458 37.8844 30.2384 37.8844H29.9459V41.8231L30.4841 42.0033L30.6105 41.8301C33.0655 38.4601 35.0968 37.2057 38.1017 37.2057C40.7533 37.2057 41.6051 38.2424 41.6051 41.4767V41.7482C41.6051 43.2249 39.5223 43.9761 37.1118 44.8467C33.2948 46.2251 28.5464 47.9382 28.5464 53.4964C28.5464 54.9216 29.0917 59.5717 36.1148 59.5717C37.072 59.5717 37.9145 59.4594 38.6915 59.2254C39.6791 58.9281 40.6948 58.308 41.6051 57.4538V59.3915H47.2592L47.4277 58.8837L47.299 58.755C46.0282 57.4842 46.0282 56.6932 46.0282 54.5799ZM41.6028 52.7639C41.6028 56.4498 39.3702 57.6457 38.4107 57.9874C37.8256 58.1956 37.1867 58.308 36.5642 58.308C33.8471 58.308 32.8806 55.9139 32.8806 53.6742C32.8806 49.436 36.0961 47.4959 38.9325 45.7852C39.9365 45.179 40.8984 44.5986 41.6028 43.9621V52.7615V52.7639Z" fill="white"/>
<path d="M250.405 54.5799V41.7459C250.405 38.1137 247.515 36.0309 242.476 36.0309C240.262 36.0309 238.589 36.6721 237.246 37.187C236.268 37.5614 235.423 37.8844 234.615 37.8844H234.323V41.8207L234.861 42.0009L234.987 41.8278C237.445 38.4578 239.474 37.2034 242.479 37.2034C245.13 37.2034 245.982 38.2401 245.982 41.4744V41.7459C245.982 43.2226 243.899 43.9738 241.489 44.8444C237.672 46.2228 232.923 47.9359 232.923 53.494C232.923 54.9193 233.469 59.5694 240.492 59.5694C241.449 59.5694 242.291 59.4571 243.068 59.223C244.056 58.9258 245.072 58.3056 245.982 57.4514V59.3892H251.636L251.805 58.8814L251.676 58.7526C250.405 57.4819 250.405 56.6909 250.405 54.5776V54.5799ZM245.98 52.7639C245.98 56.4498 243.747 57.6457 242.785 57.9874C242.2 58.1957 241.561 58.308 240.939 58.308C238.222 58.308 237.255 55.9139 237.255 53.6742C237.255 49.436 240.471 47.4959 243.307 45.7852C244.311 45.179 245.273 44.601 245.977 43.9621V52.7615L245.98 52.7639Z" fill="white"/>
<path d="M225.09 45.6845C225.869 45.4716 226.583 45.1182 227.177 44.6501C227.524 44.3763 227.828 44.0674 228.081 43.7281C228.925 42.6047 229.155 40.8027 228.621 39.429C228.331 38.6941 227.835 38.0623 227.151 37.5521C225.378 36.2322 222.78 36.0356 221.387 36.0356C219.407 36.0356 217.811 36.6066 216.529 37.0676C215.595 37.4023 214.79 37.6901 214.069 37.6901H213.777V41.2614L214.303 41.4393L214.43 41.2661C216.529 38.3782 218.612 37.1472 221.39 37.1472C223.299 37.1472 224.661 38.2307 225.029 40.0445C225.263 41.2029 225.118 42.8622 224.388 43.7936C223.7 44.6712 222.562 44.8912 221.731 44.9216C221.657 44.9239 221.579 44.9263 221.504 44.9263H218.549L218.268 44.9473V44.9895H218.247V45.9232H219.709C224.076 45.9232 225.778 47.6948 225.778 52.242C225.778 56.5481 224.264 58.5537 221.011 58.5537C218.738 58.5537 216.03 57.5638 216.03 52.8528C216.03 51.4393 216.627 50.4868 216.632 50.4774L216.901 50.0608L215.764 49.9813L212.352 52.0758V52.2396C212.352 57.6597 216.824 59.5905 221.008 59.5905C223.409 59.5905 225.626 58.996 227.247 57.9148C229.202 56.6136 230.234 54.6501 230.234 52.2396C230.234 49.1084 228.42 46.8149 225.09 45.6845Z" fill="white"/>
</g>
<defs>
<clipPath id="clip0_113_337">
<rect width="317.332" height="60" fill="white"/>
</clipPath>
</defs>
</svg>
