<svg width="36" height="27" viewBox="0 0 36 27" fill="none" xmlns="http://www.w3.org/2000/svg">
<path fill-rule="evenodd" clip-rule="evenodd" d="M30.6207 12.9278C29.6046 12.5041 28.5845 11.9367 27.6303 11.1947C24.8989 9.07078 22.7497 5.54734 22.7497 0H23.7497C23.7497 5.25266 25.7672 8.47922 28.2441 10.4053C30.6353 12.2646 33.4937 12.9409 35.4837 12.9963L35.7497 13L35.7572 13L35.7497 13.5347V14C33.7546 14 30.744 14.6508 28.2441 16.5947C25.7672 18.5208 23.7497 21.7473 23.7497 27H22.7497C22.7497 21.4527 24.8989 17.9292 27.6303 15.8053C28.6934 14.9786 29.8384 14.3687 30.9685 13.9327L0.243164 13.5L0.257247 12.5L30.6207 12.9278Z" fill="white"/>
</svg>
