<svg width="24" height="24" viewBox="0 0 24 24" fill="none" xmlns="http://www.w3.org/2000/svg">
<path fill-rule="evenodd" clip-rule="evenodd" d="M4.06368 1.25H7.8146C8.12697 1.25 8.40663 1.44361 8.51659 1.73599L9.97202 5.60588C10.0202 5.73398 10.0324 5.87281 10.0073 6.00735L9.27804 9.91931C10.1744 12.0273 11.655 13.4439 14.1106 14.7146L17.9756 13.9657C18.1128 13.9391 18.2547 13.9514 18.3853 14.0012L22.2671 15.4804C22.5579 15.5912 22.75 15.87 22.75 16.1812V19.7655C22.75 21.391 21.3178 22.7101 19.6426 22.3456C16.589 21.6811 10.9317 19.9923 6.96975 16.0303C3.17461 12.2352 1.90307 6.99252 1.47503 4.15869C1.2308 2.54172 2.5276 1.25 4.06368 1.25Z" fill="#333333"/>
</svg>
