<svg width="25" height="24" viewBox="0 0 25 24" fill="none" xmlns="http://www.w3.org/2000/svg">
<path d="M14.6665 10.749V7.05298C14.6665 6.21998 14.5155 6.05298 13.6865 6.05298L11.3365 5.99998C10.6045 5.99998 10.2385 5.99998 10.0905 6.23698C9.94254 6.47398 10.1065 6.79898 10.4335 7.44698C10.6155 7.80698 10.7135 8.06798 10.7135 8.47198V11.132C10.7135 11.972 10.7135 12.393 10.3935 12.518C10.0735 12.642 9.80854 12.36 9.27654 11.796C7.97654 10.412 7.29854 8.68398 6.85354 6.79998C6.76154 6.40998 6.71554 6.21498 6.57754 6.10698C6.43954 5.99898 6.24254 5.99998 5.85054 5.99998H3.65054C3.16854 5.99998 2.92754 5.99998 2.77654 6.16998C2.62654 6.34098 2.65554 6.55898 2.71354 6.99398C3.24154 10.921 6.69453 17.36 13.0735 17.974C14.2035 18.082 14.6665 17.777 14.6665 16.539C14.6665 15.837 14.6515 14.703 15.5345 14.554C15.9975 14.476 16.3085 14.641 16.8255 15.074C17.7215 15.826 18.1915 16.744 18.5185 17.441C18.7355 17.903 18.8965 18 19.4065 18H21.4805C22.5285 18 22.8135 17.744 22.3465 16.76C21.8187 15.6564 21.0715 14.6721 20.1505 13.867C19.5145 13.32 19.1975 13.047 19.1805 12.845C19.1615 12.644 19.3945 12.359 19.8605 11.789C20.7605 10.687 21.9865 8.95798 22.5585 7.12298C22.8425 6.21298 22.5755 5.99998 21.6545 5.99998H19.7915C18.8885 5.99998 18.8895 5.96898 18.6765 6.99298C18.3305 8.65398 17.1985 10.251 16.1345 11.338C15.6295 11.854 15.3245 12.165 15.0095 12.038C14.6945 11.911 14.6665 11.525 14.6665 10.749Z" stroke="#333333" stroke-width="1.5" stroke-linecap="round" stroke-linejoin="round"/>
</svg>
