<svg width="25" height="24" viewBox="0 0 25 24" fill="none" xmlns="http://www.w3.org/2000/svg">
<path d="M19.3833 4.90999C18.4664 3.9841 17.3743 3.24996 16.1708 2.75036C14.9673 2.25075 13.6764 1.99568 12.3733 1.99999C6.9133 1.99999 2.4633 6.44999 2.4633 11.91C2.4633 13.66 2.9233 15.36 3.7833 16.86L2.3833 22L7.6333 20.62C9.0833 21.41 10.7133 21.83 12.3733 21.83C17.8333 21.83 22.2833 17.38 22.2833 11.92C22.2833 9.26999 21.2533 6.77999 19.3833 4.90999ZM12.3733 20.15C10.8933 20.15 9.4433 19.75 8.1733 19L7.8733 18.82L4.7533 19.64L5.5833 16.6L5.3833 16.29C4.56085 14.9771 4.12423 13.4593 4.1233 11.91C4.1233 7.36999 7.8233 3.66999 12.3633 3.66999C14.5633 3.66999 16.6333 4.52999 18.1833 6.08999C18.9509 6.85386 19.5592 7.76254 19.9729 8.76332C20.3866 9.76411 20.5975 10.8371 20.5933 11.92C20.6133 16.46 16.9133 20.15 12.3733 20.15ZM16.8933 13.99C16.6433 13.87 15.4233 13.27 15.2033 13.18C14.9733 13.1 14.8133 13.06 14.6433 13.3C14.4733 13.55 14.0033 14.11 13.8633 14.27C13.7233 14.44 13.5733 14.46 13.3233 14.33C13.0733 14.21 12.2733 13.94 11.3333 13.1C10.5933 12.44 10.1033 11.63 9.9533 11.38C9.8133 11.13 9.9333 11 10.0633 10.87C10.1733 10.76 10.3133 10.58 10.4333 10.44C10.5533 10.3 10.6033 10.19 10.6833 10.03C10.7633 9.85999 10.7233 9.71999 10.6633 9.59999C10.6033 9.47999 10.1033 8.25999 9.9033 7.75999C9.7033 7.27999 9.4933 7.33999 9.3433 7.32999H8.8633C8.6933 7.32999 8.4333 7.38999 8.2033 7.63999C7.9833 7.88999 7.3433 8.48999 7.3433 9.70999C7.3433 10.93 8.2333 12.11 8.3533 12.27C8.4733 12.44 10.1033 14.94 12.5833 16.01C13.1733 16.27 13.6333 16.42 13.9933 16.53C14.5833 16.72 15.1233 16.69 15.5533 16.63C16.0333 16.56 17.0233 16.03 17.2233 15.45C17.4333 14.87 17.4333 14.38 17.3633 14.27C17.2933 14.16 17.1433 14.11 16.8933 13.99Z" fill="#333333"/>
</svg>
