<svg width="24" height="24" viewBox="0 0 24 24" fill="none" xmlns="http://www.w3.org/2000/svg">
<path d="M22 12C22 6.47715 17.5228 2 12 2C6.47715 2 2 6.47715 2 12C2 17.5228 6.47715 22 12 22" stroke="#333333" stroke-width="1.5" stroke-linecap="round" stroke-linejoin="round"/>
<path d="M13 2.04932C13 2.04932 16 5.99994 16 11.9999" stroke="#333333" stroke-width="1.5" stroke-linecap="round" stroke-linejoin="round"/>
<path d="M11 21.9506C11 21.9506 8 17.9999 8 11.9999C8 5.99994 11 2.04932 11 2.04932" stroke="#333333" stroke-width="1.5" stroke-linecap="round" stroke-linejoin="round"/>
<path d="M2.62988 15.5H12.0002" stroke="#333333" stroke-width="1.5" stroke-linecap="round" stroke-linejoin="round"/>
<path d="M2.62988 8.5H21.3706" stroke="#333333" stroke-width="1.5" stroke-linecap="round" stroke-linejoin="round"/>
<path fill-rule="evenodd" clip-rule="evenodd" d="M21.8787 17.9174C22.3725 18.2211 22.3421 18.9604 21.8335 19.0181L19.2669 19.309L18.1157 21.6213C17.8876 22.0795 17.1825 21.8552 17.0659 21.2873L15.8106 15.1713C15.7121 14.6913 16.1435 14.3892 16.5608 14.646L21.8787 17.9174Z" stroke="#333333" stroke-width="1.5"/>
</svg>
